/* XPM */
static const char * xrossboard_xpm[] = {
"32 32 400 2",
"  	c None",
". 	c #349CFF",
"+ 	c #359FFF",
"@ 	c #36A2FF",
"# 	c #36A5FF",
"$ 	c #37A7FF",
"% 	c #38A8FF",
"& 	c #38AAFF",
"* 	c #39AAFF",
"= 	c #38A9FF",
"- 	c #38A7FF",
"; 	c #37A5FF",
"> 	c #36A3FF",
", 	c #36A0FF",
"' 	c #349DFF",
") 	c #339AFF",
"! 	c #3296FF",
"~ 	c #3192FF",
"{ 	c #308FFF",
"] 	c #2F8BFF",
"^ 	c #2D87FF",
"/ 	c #2C84FF",
"( 	c #2A7FFF",
"_ 	c #297BFF",
": 	c #2776FF",
"< 	c #2772FF",
"[ 	c #246EFF",
"} 	c #236AFF",
"| 	c #2266FF",
"1 	c #2162FF",
"2 	c #1F5DFF",
"3 	c #37A6FF",
"4 	c #39ABFF",
"5 	c #3AADFF",
"6 	c #3AAEFF",
"7 	c #3AAFFF",
"8 	c #39ACFF",
"9 	c #36A4FF",
"0 	c #3399FF",
"a 	c #3295FF",
"b 	c #3091FF",
"c 	c #2F8DFF",
"d 	c #2E89FF",
"e 	c #2C85FF",
"f 	c #2B81FF",
"g 	c #2A7DFF",
"h 	c #2978FF",
"i 	c #2774FF",
"j 	c #2570FF",
"k 	c #236CFF",
"l 	c #2268FF",
"m 	c #2063FF",
"n 	c #205FFF",
"o 	c #3BAFFF",
"p 	c #3BB1FF",
"q 	c #3CB3FF",
"r 	c #3CB4FF",
"s 	c #3CB2FF",
"t 	c #349BFF",
"u 	c #3297FF",
"v 	c #3193FF",
"w 	c #2E8BFF",
"x 	c #2D86FF",
"y 	c #2B83FF",
"z 	c #2A7EFF",
"A 	c #287AFF",
"B 	c #2875FF",
"C 	c #2672FF",
"D 	c #246DFF",
"E 	c #2369FF",
"F 	c #2164FF",
"G 	c #2060FF",
"H 	c #3BB2FF",
"I 	c #3DB5FF",
"J 	c #3DB7FF",
"K 	c #3EB8FF",
"L 	c #3DB8FF",
"M 	c #3DB6FF",
"N 	c #3AB0FF",
"O 	c #36A1FF",
"P 	c #2F8CFF",
"Q 	c #2E88FF",
"R 	c #2B80FF",
"S 	c #2777FF",
"T 	c #256EFF",
"U 	c #2165FF",
"V 	c #2061FF",
"W 	c #3FBBFF",
"X 	c #3FBDFF",
"Y 	c #3EBCFF",
"Z 	c #3EB9FF",
"` 	c #3CB6FF",
" .	c #35A0FF",
"..	c #2F8EFF",
"+.	c #2E8AFF",
"@.	c #2D85FF",
"#.	c #2878FF",
"$.	c #2773FF",
"%.	c #246BFF",
"&.	c #2062FF",
"*.	c #40C0FF",
"=.	c #41C1FF",
"-.	c #41C0FF",
";.	c #36A6FF",
">.	c #3398FF",
",.	c #2F8FFF",
"'.	c #2C81FF",
").	c #256FFF",
"!.	c #2267FF",
"~.	c #3BB3FF",
"{.	c #41C3FF",
"].	c #42C6FF",
"^.	c #42C4FF",
"/.	c #359DFF",
"(.	c #3194FF",
"_.	c #3090FF",
":.	c #2C86FF",
"<.	c #2B82FF",
"[.	c #297EFF",
"}.	c #2979FF",
"|.	c #2674FF",
"1.	c #2670FF",
"2.	c #236BFF",
"3.	c #2367FF",
"4.	c #2163FF",
"5.	c #44CBFF",
"6.	c #45CCFF",
"7.	c #41C2FF",
"8.	c #40BDFF",
"9.	c #359EFF",
"0.	c #3299FF",
"a.	c #3294FF",
"b.	c #297AFF",
"c.	c #2775FF",
"d.	c #2368FF",
"e.	c #45CBFF",
"f.	c #35A2FF",
"g.	c #246CFF",
"h.	c #297BA4",
"i.	c #1F5E7B",
"j.	c #1F5F7A",
"k.	c #1E5C75",
"l.	c #3EBAF1",
"m.	c #3FBCFF",
"n.	c #3EBAFF",
"o.	c #1D5984",
"p.	c #1D5683",
"q.	c #21639A",
"r.	c #2166A7",
"s.	c #1A4F87",
"t.	c #194D88",
"u.	c #194B89",
"v.	c #18498A",
"w.	c #18478B",
"x.	c #16468C",
"y.	c #16448D",
"z.	c #184AA3",
"A.	c #246CF3",
"B.	c #3AB1FF",
"C.	c #28769F",
"D.	c #020508",
"E.	c #03080B",
"F.	c #02070A",
"G.	c #1C5470",
"H.	c #3FBEFF",
"I.	c #0F2E44",
"J.	c #02070C",
"K.	c #06131F",
"L.	c #3398F2",
"M.	c #06121E",
"N.	c #03080D",
"O.	c #02070D",
"P.	c #020811",
"Q.	c #040E1C",
"R.	c #01050A",
"S.	c #02070F",
"T.	c #01050D",
"U.	c #000307",
"V.	c #11347B",
"W.	c #061118",
"X.	c #03090E",
"Y.	c #051118",
"Z.	c #103248",
"`.	c #03070D",
" +	c #081927",
".+	c #3193F0",
"++	c #010306",
"@+	c #02080F",
"#+	c #123666",
"$+	c #2D89FF",
"%+	c #07162E",
"&+	c #020711",
"*+	c #000204",
"=+	c #2060EF",
"-+	c #39ADFF",
";+	c #3BB0FF",
">+	c #1B5273",
",+	c #02060A",
"'+	c #2675A3",
")+	c #40BFFF",
"!+	c #11344C",
"~+	c #02070B",
"{+	c #0B2031",
"]+	c #1E5C96",
"^+	c #02060B",
"/+	c #1E5BA9",
"(+	c #2B7FFF",
"_+	c #0E2A5B",
":+	c #1F5DEB",
"<+	c #2161FF",
"[+	c #38A6FF",
"}+	c #3CB3FE",
"|+	c #020509",
"1+	c #0D293B",
"2+	c #133A55",
"3+	c #0D273C",
"4+	c #37A3FF",
"5+	c #103355",
"6+	c #03080F",
"7+	c #000305",
"8+	c #2D88FF",
"9+	c #040C1B",
"0+	c #08183B",
"a+	c #12354C",
"b+	c #10314B",
"c+	c #061220",
"d+	c #08192F",
"e+	c #246FE1",
"f+	c #091B3A",
"g+	c #010309",
"h+	c #091C41",
"i+	c #1F5FFF",
"j+	c #2D87CA",
"k+	c #010408",
"l+	c #03090F",
"m+	c #0C2538",
"n+	c #2F8EF1",
"o+	c #010206",
"p+	c #020912",
"q+	c #01060D",
"r+	c #010406",
"s+	c #020710",
"t+	c #17459E",
"u+	c #071520",
"v+	c #39A9FF",
"w+	c #1D5898",
"x+	c #02060C",
"y+	c #12386C",
"z+	c #194990",
"A+	c #174792",
"B+	c #133978",
"C+	c #02060F",
"D+	c #010307",
"E+	c #11337D",
"F+	c #2160FF",
"G+	c #1E5CFF",
"H+	c #133857",
"I+	c #1C568B",
"J+	c #103156",
"K+	c #020810",
"L+	c #000306",
"M+	c #113676",
"N+	c #000207",
"O+	c #205EF2",
"P+	c #1F5EFF",
"Q+	c #1E5AFF",
"R+	c #3092FF",
"S+	c #339BFF",
"T+	c #103252",
"U+	c #123656",
"V+	c #050E16",
"W+	c #071726",
"X+	c #061120",
"Y+	c #07162C",
"Z+	c #297CFF",
"`+	c #133A82",
" @	c #01040C",
".@	c #1A4ECC",
"+@	c #1D58FF",
"@@	c #308EFF",
"#@	c #3195FF",
"$@	c #0F2D4C",
"%@	c #0D2640",
"&@	c #37A4FF",
"*@	c #16406A",
"=@	c #020408",
"-@	c #2570C3",
";@	c #2C85F1",
">@	c #113365",
",@	c #2879FF",
"'@	c #071734",
")@	c #020712",
"!@	c #02050D",
"~@	c #1D56FF",
"{@	c #0C2745",
"]@	c #0A1F35",
"^@	c #339CFF",
"/@	c #2E8CF0",
"(@	c #0D2A4B",
"_@	c #1B539B",
":@	c #01060C",
"<@	c #1C55AE",
"[@	c #2A7CFF",
"}@	c #113374",
"|@	c #01050C",
"1@	c #113388",
"2@	c #1E59FF",
"3@	c #1C54FF",
"4@	c #3191FF",
"5@	c #0B223D",
"6@	c #02070E",
"7@	c #07172A",
"8@	c #0C2645",
"9@	c #000408",
"0@	c #2D85F7",
"a@	c #0F2E59",
"b@	c #0E2C5D",
"c@	c #0F2E63",
"d@	c #0E2B5F",
"e@	c #051024",
"f@	c #02060E",
"g@	c #01040A",
"h@	c #113487",
"i@	c #1C52FF",
"j@	c #2C82FF",
"k@	c #123967",
"l@	c #091C32",
"m@	c #0B213C",
"n@	c #2F8AFF",
"o@	c #2267BE",
"p@	c #081B2E",
"q@	c #091D33",
"r@	c #1A4E95",
"s@	c #0C2647",
"t@	c #091C33",
"u@	c #081B34",
"v@	c #081A36",
"w@	c #081936",
"x@	c #081836",
"y@	c #0A1F49",
"z@	c #10327F",
"A@	c #1F5EF1",
"B@	c #1E5BFF",
"C@	c #1B50FF",
"D@	c #2B80FE",
"E@	c #2C87FF",
"F@	c #2C83FF",
"G@	c #2A7EFE",
"H@	c #2A80FF",
"I@	c #2977FF",
"J@	c #2571FF",
"K@	c #256DFF",
"L@	c #1C55FF",
"M@	c #194EFF",
"N@	c #287BFF",
"O@	c #2671FF",
"P@	c #1C56FF",
"Q@	c #1A4FFF",
"R@	c #194BFF",
"S@	c #2877FF",
"T@	c #1C53FF",
"U@	c #1A50FF",
"V@	c #194CFF",
"W@	c #1849FF",
"X@	c #2876FF",
"Y@	c #2265FF",
"Z@	c #1949FF",
"`@	c #1745FF",
" #	c #2673FF",
".#	c #205EFF",
"+#	c #1F5CFF",
"@#	c #1D59FF",
"##	c #1A4DFF",
"$#	c #194AFF",
"%#	c #1746FF",
"&#	c #1642FF",
"*#	c #256CFF",
"=#	c #246FFF",
"-#	c #2366FF",
";#	c #1847FF",
">#	c #1643FF",
",#	c #1540FF",
"'#	c #2269FF",
")#	c #246AFF",
"!#	c #1D57FF",
"~#	c #1B4FFF",
"{#	c #1743FF",
"]#	c #1640FF",
"^#	c #143DFF",
"/#	c #2264FF",
"(#	c #1D55FF",
"_#	c #1B51FF",
":#	c #1339FF",
"<#	c #205DFF",
"[#	c #194DFF",
"}#	c #1848FF",
"|#	c #153FFF",
"1#	c #143CFF",
"2#	c #133AFF",
"3#	c #1236FF",
". + @ # $ % & * * & = - ; > , ' ) ! ~ { ] ^ / ( _ : < [ } | 1 2 ",
"+ > 3 = 4 5 6 7 7 7 6 8 = $ 9 , . 0 a b c d e f g h i j k l m n ",
"@ 3 = 8 o p q r r s p o 5 & 3 > + t u v { w x y z A B C D E F G ",
"; = 8 o H I J K L J M s N 5 = 3 O ' ) a b P Q / R _ S C T E U V ",
"- 4 o H M K W X X Y Z ` q o 8 - >  .t u ~ ..+.@.f g #.$.[ %.| &.",
"% 5 p I K X *.=.=.-.X Z I H 5 = ;., . >.v ,.w x '.g #.i ).%.!.1 ",
"* 6 ~.J Y *.{.].].^.-.Y J q 7 4 3 O /.0 (._.w :.<.[.}.|.1.2.3.4.",
"* 7 q J X =.].5.6.].7.8.L r o 4 - @ 9.0.a._.P ^ y [.b.c.j k d.&.",
"* o q J X =.].5.e.].=.8.L r o 4 - f.9.0.a._.] ^ <.[.}.c.1.g.d.&.",
"* 6 q J X h.i.j.k.l.-.m.L q n.o.p.q.O r.s.t.u.v.w.x.y.z.A.D 3.4.",
"% 6 B.I L C.D.E.F.G.H.n.M H.I.J.K.L.% M.N.O.P.Q.Q.R.S.T.U.V.E 1 ",
"- 4 7 s M 5.W.X.X.Y.5.` *.Z.`. +; + .+++@+@+#+{ $+/ %+&+&+*+=+1 ",
"; = -+;+s M >+N.X.,+'+)+!+~+{+4 O ' ]+J.@+^+/+/ (+g _+&+&+++:+<+",
"@ [+= -+o ;+}+|+X.X.1+2+,+3+;+4+ .9.5+6+@+7+8+<.z <.9+&+&+0+E G ",
" .@ [+= 8 6 H a+X.X.N.^+b+H >  .. # c+@+@+d+u c e+f+&+g+h+d.4.i+",
". , @ ; $ % * j+k+l+l+m+q >  .. ) n+o+@+@+P.p+q+r+&+s+t+C | &.2 ",
"0 . + O @ ; 3 n.u+l+l+l+v++ . ) ! w+x+@+q+y+z+A+B+C+&+D+E+| F+G+",
"a 0 t . +  .8 H+^+l+l+N.I+t 0 ! a J+@+K+L+/ z A #.M+s+&+N+O+P+Q+",
"R+a.u 0 S+; T+,+U+V+l+l+W+> (.~ ) X+K+K+Y+:.Z+#.i `+s+&+ @.@2 +@",
"@@b ~ #@ .$@J.%@&@*@X.l+=@-@b { ;@L+K+K+>@z ,@c.}.'@&+)@!@1 Q+~@",
"+.P ..>.{@O.]@^@v /@D+@+6+(@_.w _@q+K+:@<@b.#.[@}@T.&+|@1@2 2@3@",
"x $+4@5@6@7@a.,._.v 8@@+@+9@0@$+a@K+K+:@b@c@d@e@f@s+g@h@1 Q+~@i@",
"j@^ k@l@m@w +.w w n@o@p@q@l@r@8+s@t@u@u@v@v@w@x@y@z@A@G B@+@3@C@",
"z D@x d $+@.x E@E@x x +.d ^ F@G@f H@Z+b.I@i J@K@E 4.n G++@L@i@M@",
"A Z+z ( R R f f f f R R ( [.Z+N@,@: $.O@).g.E | 4.G 2 2@P@i@Q@R@",
"c.S@}.A Z+[@g g g g Z+Z+A }.S@: c.$.).T g.d.| 4.n 2 Q+~@T@U@V@W@",
"O@$.c.X@S S@#.#.#.#.#.S : c.|.O@1.[ D } l Y@4.n 2 2@~@3@C@V@Z@`@",
"[ ).j O@C  #$.i i $. #C C O@).T g.} E | 4.<+.#+#@#~@T@C@##$#%#&#",
"E %.*#D [ T =#).j =#T [ D g.2.E l -#F &.G P+B@+@L@T@C@V@$#;#>#,#",
"U !.3.'#E } %.%.%.%.} )#'#l !.U 4.&.G P++#2@!#3@i@~#V@$#%#{#]#^#",
"<+&.m /#U Y@| Y@Y@| Y@U /#4.1 <+G 2 +#Q++@(#3@_#Q@R@W@%#>#,#^#:#",
"G+2 n G F+<+V 1 1 V 1 F+G n <#G+B@2@+@~@3@_#~#[#$#}#`@&#|#1#2#3#"};
